<mxfile host="app.diagrams.net" agent="Mozilla/5.0 (Macintosh; Intel Mac OS X 10_15_7) AppleWebKit/605.1.15 (KHTML, like Gecko) Version/18.2 Safari/605.1.15" version="26.0.11">
  <diagram name="Страница — 1" id="xcd6TNOF-dEfSjQ2W45v">
    <mxGraphModel dx="1949" dy="761" grid="1" gridSize="13" guides="1" tooltips="1" connect="1" arrows="1" fold="1" page="1" pageScale="1" pageWidth="827" pageHeight="1169" math="0" shadow="0">
      <root>
        <mxCell id="0" />
        <mxCell id="1" parent="0" />
        <mxCell id="_4w8fBK6TrAh7xcXZxRu-2" value="User" style="shape=table;startSize=30;container=1;collapsible=1;childLayout=tableLayout;fixedRows=1;rowLines=0;fontStyle=1;align=center;resizeLast=1;html=1;" parent="1" vertex="1">
          <mxGeometry x="-39" y="100" width="200" height="150" as="geometry" />
        </mxCell>
        <mxCell id="_4w8fBK6TrAh7xcXZxRu-3" value="" style="shape=tableRow;horizontal=0;startSize=0;swimlaneHead=0;swimlaneBody=0;fillColor=none;collapsible=0;dropTarget=0;points=[[0,0.5],[1,0.5]];portConstraint=eastwest;top=0;left=0;right=0;bottom=1;" parent="_4w8fBK6TrAh7xcXZxRu-2" vertex="1">
          <mxGeometry y="30" width="200" height="30" as="geometry" />
        </mxCell>
        <mxCell id="_4w8fBK6TrAh7xcXZxRu-4" value="PK" style="shape=partialRectangle;connectable=0;fillColor=none;top=0;left=0;bottom=0;right=0;fontStyle=1;overflow=hidden;whiteSpace=wrap;html=1;" parent="_4w8fBK6TrAh7xcXZxRu-3" vertex="1">
          <mxGeometry width="30" height="30" as="geometry">
            <mxRectangle width="30" height="30" as="alternateBounds" />
          </mxGeometry>
        </mxCell>
        <mxCell id="_4w8fBK6TrAh7xcXZxRu-5" value="UserID" style="shape=partialRectangle;connectable=0;fillColor=none;top=0;left=0;bottom=0;right=0;align=left;spacingLeft=6;fontStyle=5;overflow=hidden;whiteSpace=wrap;html=1;" parent="_4w8fBK6TrAh7xcXZxRu-3" vertex="1">
          <mxGeometry x="30" width="170" height="30" as="geometry">
            <mxRectangle width="170" height="30" as="alternateBounds" />
          </mxGeometry>
        </mxCell>
        <mxCell id="_4w8fBK6TrAh7xcXZxRu-6" value="" style="shape=tableRow;horizontal=0;startSize=0;swimlaneHead=0;swimlaneBody=0;fillColor=none;collapsible=0;dropTarget=0;points=[[0,0.5],[1,0.5]];portConstraint=eastwest;top=0;left=0;right=0;bottom=0;" parent="_4w8fBK6TrAh7xcXZxRu-2" vertex="1">
          <mxGeometry y="60" width="200" height="30" as="geometry" />
        </mxCell>
        <mxCell id="_4w8fBK6TrAh7xcXZxRu-7" value="" style="shape=partialRectangle;connectable=0;fillColor=none;top=0;left=0;bottom=0;right=0;editable=1;overflow=hidden;whiteSpace=wrap;html=1;" parent="_4w8fBK6TrAh7xcXZxRu-6" vertex="1">
          <mxGeometry width="30" height="30" as="geometry">
            <mxRectangle width="30" height="30" as="alternateBounds" />
          </mxGeometry>
        </mxCell>
        <mxCell id="_4w8fBK6TrAh7xcXZxRu-8" value="Login" style="shape=partialRectangle;connectable=0;fillColor=none;top=0;left=0;bottom=0;right=0;align=left;spacingLeft=6;overflow=hidden;whiteSpace=wrap;html=1;" parent="_4w8fBK6TrAh7xcXZxRu-6" vertex="1">
          <mxGeometry x="30" width="170" height="30" as="geometry">
            <mxRectangle width="170" height="30" as="alternateBounds" />
          </mxGeometry>
        </mxCell>
        <mxCell id="_4w8fBK6TrAh7xcXZxRu-9" value="" style="shape=tableRow;horizontal=0;startSize=0;swimlaneHead=0;swimlaneBody=0;fillColor=none;collapsible=0;dropTarget=0;points=[[0,0.5],[1,0.5]];portConstraint=eastwest;top=0;left=0;right=0;bottom=0;" parent="_4w8fBK6TrAh7xcXZxRu-2" vertex="1">
          <mxGeometry y="90" width="200" height="30" as="geometry" />
        </mxCell>
        <mxCell id="_4w8fBK6TrAh7xcXZxRu-10" value="" style="shape=partialRectangle;connectable=0;fillColor=none;top=0;left=0;bottom=0;right=0;editable=1;overflow=hidden;whiteSpace=wrap;html=1;" parent="_4w8fBK6TrAh7xcXZxRu-9" vertex="1">
          <mxGeometry width="30" height="30" as="geometry">
            <mxRectangle width="30" height="30" as="alternateBounds" />
          </mxGeometry>
        </mxCell>
        <mxCell id="_4w8fBK6TrAh7xcXZxRu-11" value="Password" style="shape=partialRectangle;connectable=0;fillColor=none;top=0;left=0;bottom=0;right=0;align=left;spacingLeft=6;overflow=hidden;whiteSpace=wrap;html=1;" parent="_4w8fBK6TrAh7xcXZxRu-9" vertex="1">
          <mxGeometry x="30" width="170" height="30" as="geometry">
            <mxRectangle width="170" height="30" as="alternateBounds" />
          </mxGeometry>
        </mxCell>
        <mxCell id="_4w8fBK6TrAh7xcXZxRu-12" value="" style="shape=tableRow;horizontal=0;startSize=0;swimlaneHead=0;swimlaneBody=0;fillColor=none;collapsible=0;dropTarget=0;points=[[0,0.5],[1,0.5]];portConstraint=eastwest;top=0;left=0;right=0;bottom=0;" parent="_4w8fBK6TrAh7xcXZxRu-2" vertex="1">
          <mxGeometry y="120" width="200" height="30" as="geometry" />
        </mxCell>
        <mxCell id="_4w8fBK6TrAh7xcXZxRu-13" value="" style="shape=partialRectangle;connectable=0;fillColor=none;top=0;left=0;bottom=0;right=0;editable=1;overflow=hidden;whiteSpace=wrap;html=1;" parent="_4w8fBK6TrAh7xcXZxRu-12" vertex="1">
          <mxGeometry width="30" height="30" as="geometry">
            <mxRectangle width="30" height="30" as="alternateBounds" />
          </mxGeometry>
        </mxCell>
        <mxCell id="_4w8fBK6TrAh7xcXZxRu-14" value="Mail" style="shape=partialRectangle;connectable=0;fillColor=none;top=0;left=0;bottom=0;right=0;align=left;spacingLeft=6;overflow=hidden;whiteSpace=wrap;html=1;" parent="_4w8fBK6TrAh7xcXZxRu-12" vertex="1">
          <mxGeometry x="30" width="170" height="30" as="geometry">
            <mxRectangle width="170" height="30" as="alternateBounds" />
          </mxGeometry>
        </mxCell>
        <mxCell id="_4w8fBK6TrAh7xcXZxRu-15" value="Container" style="shape=table;startSize=30;container=1;collapsible=1;childLayout=tableLayout;fixedRows=0;rowLines=0;fontStyle=1;align=center;resizeLast=1;html=1;columnLines=1;resizeLastRow=0;" parent="1" vertex="1">
          <mxGeometry x="468" y="105" width="202" height="190" as="geometry" />
        </mxCell>
        <mxCell id="_4w8fBK6TrAh7xcXZxRu-16" value="" style="shape=tableRow;horizontal=0;startSize=0;swimlaneHead=0;swimlaneBody=0;fillColor=none;collapsible=0;dropTarget=0;points=[[0,0.5],[1,0.5]];portConstraint=eastwest;top=0;left=0;right=0;bottom=1;" parent="_4w8fBK6TrAh7xcXZxRu-15" vertex="1">
          <mxGeometry y="30" width="202" height="41" as="geometry" />
        </mxCell>
        <mxCell id="_4w8fBK6TrAh7xcXZxRu-17" value="PK" style="shape=partialRectangle;connectable=0;fillColor=none;top=0;left=0;bottom=0;right=0;fontStyle=1;overflow=hidden;whiteSpace=wrap;html=1;" parent="_4w8fBK6TrAh7xcXZxRu-16" vertex="1">
          <mxGeometry width="30" height="41" as="geometry">
            <mxRectangle width="30" height="41" as="alternateBounds" />
          </mxGeometry>
        </mxCell>
        <mxCell id="_4w8fBK6TrAh7xcXZxRu-18" value="ContainerID" style="shape=partialRectangle;connectable=0;fillColor=none;top=0;left=0;bottom=0;right=0;align=left;spacingLeft=6;fontStyle=5;overflow=hidden;whiteSpace=wrap;html=1;" parent="_4w8fBK6TrAh7xcXZxRu-16" vertex="1">
          <mxGeometry x="30" width="172" height="41" as="geometry">
            <mxRectangle width="172" height="41" as="alternateBounds" />
          </mxGeometry>
        </mxCell>
        <mxCell id="_4w8fBK6TrAh7xcXZxRu-19" value="" style="shape=tableRow;horizontal=0;startSize=0;swimlaneHead=0;swimlaneBody=0;fillColor=none;collapsible=0;dropTarget=0;points=[[0,0.5],[1,0.5]];portConstraint=eastwest;top=0;left=0;right=0;bottom=0;" parent="_4w8fBK6TrAh7xcXZxRu-15" vertex="1">
          <mxGeometry y="71" width="202" height="39" as="geometry" />
        </mxCell>
        <mxCell id="_4w8fBK6TrAh7xcXZxRu-20" value="" style="shape=partialRectangle;connectable=0;fillColor=none;top=0;left=0;bottom=0;right=0;editable=1;overflow=hidden;whiteSpace=wrap;html=1;" parent="_4w8fBK6TrAh7xcXZxRu-19" vertex="1">
          <mxGeometry width="30" height="39" as="geometry">
            <mxRectangle width="30" height="39" as="alternateBounds" />
          </mxGeometry>
        </mxCell>
        <mxCell id="_4w8fBK6TrAh7xcXZxRu-21" value="" style="shape=partialRectangle;connectable=0;fillColor=none;top=0;left=0;bottom=0;right=0;align=left;spacingLeft=6;overflow=hidden;whiteSpace=wrap;html=1;" parent="_4w8fBK6TrAh7xcXZxRu-19" vertex="1">
          <mxGeometry x="30" width="172" height="39" as="geometry">
            <mxRectangle width="172" height="39" as="alternateBounds" />
          </mxGeometry>
        </mxCell>
        <mxCell id="_4w8fBK6TrAh7xcXZxRu-22" value="" style="shape=tableRow;horizontal=0;startSize=0;swimlaneHead=0;swimlaneBody=0;fillColor=none;collapsible=0;dropTarget=0;points=[[0,0.5],[1,0.5]];portConstraint=eastwest;top=0;left=0;right=0;bottom=0;" parent="_4w8fBK6TrAh7xcXZxRu-15" vertex="1">
          <mxGeometry y="110" width="202" height="41" as="geometry" />
        </mxCell>
        <mxCell id="_4w8fBK6TrAh7xcXZxRu-23" value="" style="shape=partialRectangle;connectable=0;fillColor=none;top=0;left=0;bottom=0;right=0;editable=1;overflow=hidden;whiteSpace=wrap;html=1;" parent="_4w8fBK6TrAh7xcXZxRu-22" vertex="1">
          <mxGeometry width="30" height="41" as="geometry">
            <mxRectangle width="30" height="41" as="alternateBounds" />
          </mxGeometry>
        </mxCell>
        <mxCell id="_4w8fBK6TrAh7xcXZxRu-24" value="" style="shape=partialRectangle;connectable=0;fillColor=none;top=0;left=0;bottom=0;right=0;align=left;spacingLeft=6;overflow=hidden;whiteSpace=wrap;html=1;" parent="_4w8fBK6TrAh7xcXZxRu-22" vertex="1">
          <mxGeometry x="30" width="172" height="41" as="geometry">
            <mxRectangle width="172" height="41" as="alternateBounds" />
          </mxGeometry>
        </mxCell>
        <mxCell id="_4w8fBK6TrAh7xcXZxRu-25" value="" style="shape=tableRow;horizontal=0;startSize=0;swimlaneHead=0;swimlaneBody=0;fillColor=none;collapsible=0;dropTarget=0;points=[[0,0.5],[1,0.5]];portConstraint=eastwest;top=0;left=0;right=0;bottom=0;" parent="_4w8fBK6TrAh7xcXZxRu-15" vertex="1">
          <mxGeometry y="151" width="202" height="39" as="geometry" />
        </mxCell>
        <mxCell id="_4w8fBK6TrAh7xcXZxRu-26" value="" style="shape=partialRectangle;connectable=0;fillColor=none;top=0;left=0;bottom=0;right=0;editable=1;overflow=hidden;whiteSpace=wrap;html=1;" parent="_4w8fBK6TrAh7xcXZxRu-25" vertex="1">
          <mxGeometry width="30" height="39" as="geometry">
            <mxRectangle width="30" height="39" as="alternateBounds" />
          </mxGeometry>
        </mxCell>
        <mxCell id="_4w8fBK6TrAh7xcXZxRu-27" value="" style="shape=partialRectangle;connectable=0;fillColor=none;top=0;left=0;bottom=0;right=0;align=left;spacingLeft=6;overflow=hidden;whiteSpace=wrap;html=1;" parent="_4w8fBK6TrAh7xcXZxRu-25" vertex="1">
          <mxGeometry x="30" width="172" height="39" as="geometry">
            <mxRectangle width="172" height="39" as="alternateBounds" />
          </mxGeometry>
        </mxCell>
        <mxCell id="_4w8fBK6TrAh7xcXZxRu-47" value="UserID" style="shape=partialRectangle;connectable=0;fillColor=none;top=0;left=0;bottom=0;right=0;align=left;spacingLeft=6;overflow=hidden;whiteSpace=wrap;html=1;" parent="1" vertex="1">
          <mxGeometry x="497" y="174" width="170" height="30" as="geometry">
            <mxRectangle width="170" height="30" as="alternateBounds" />
          </mxGeometry>
        </mxCell>
        <mxCell id="_4w8fBK6TrAh7xcXZxRu-48" value="IPContainer" style="shape=partialRectangle;connectable=0;fillColor=none;top=0;left=0;bottom=0;right=0;align=left;spacingLeft=6;overflow=hidden;whiteSpace=wrap;html=1;" parent="1" vertex="1">
          <mxGeometry x="497" y="204" width="170" height="30" as="geometry">
            <mxRectangle width="170" height="30" as="alternateBounds" />
          </mxGeometry>
        </mxCell>
        <mxCell id="_4w8fBK6TrAh7xcXZxRu-49" value="IDContainer" style="shape=partialRectangle;connectable=0;fillColor=none;top=0;left=0;bottom=0;right=0;align=left;spacingLeft=6;overflow=hidden;whiteSpace=wrap;html=1;" parent="1" vertex="1">
          <mxGeometry x="497" y="234" width="170" height="30" as="geometry">
            <mxRectangle width="170" height="30" as="alternateBounds" />
          </mxGeometry>
        </mxCell>
        <mxCell id="_4w8fBK6TrAh7xcXZxRu-50" value="NameContainer" style="shape=partialRectangle;connectable=0;fillColor=none;top=0;left=0;bottom=0;right=0;align=left;spacingLeft=6;overflow=hidden;whiteSpace=wrap;html=1;" parent="1" vertex="1">
          <mxGeometry x="497" y="265" width="170" height="30" as="geometry">
            <mxRectangle width="170" height="30" as="alternateBounds" />
          </mxGeometry>
        </mxCell>
        <mxCell id="_4w8fBK6TrAh7xcXZxRu-64" value="HistoryContainer" style="shape=table;startSize=30;container=1;collapsible=1;childLayout=tableLayout;fixedRows=0;rowLines=0;fontStyle=1;align=center;resizeLast=1;html=1;columnLines=1;resizeLastRow=0;" parent="1" vertex="1">
          <mxGeometry x="728" y="105" width="200" height="190" as="geometry" />
        </mxCell>
        <mxCell id="_4w8fBK6TrAh7xcXZxRu-65" value="" style="shape=tableRow;horizontal=0;startSize=0;swimlaneHead=0;swimlaneBody=0;fillColor=none;collapsible=0;dropTarget=0;points=[[0,0.5],[1,0.5]];portConstraint=eastwest;top=0;left=0;right=0;bottom=1;" parent="_4w8fBK6TrAh7xcXZxRu-64" vertex="1">
          <mxGeometry y="30" width="200" height="41" as="geometry" />
        </mxCell>
        <mxCell id="_4w8fBK6TrAh7xcXZxRu-66" value="PK" style="shape=partialRectangle;connectable=0;fillColor=none;top=0;left=0;bottom=0;right=0;fontStyle=1;overflow=hidden;whiteSpace=wrap;html=1;" parent="_4w8fBK6TrAh7xcXZxRu-65" vertex="1">
          <mxGeometry width="30" height="41" as="geometry">
            <mxRectangle width="30" height="41" as="alternateBounds" />
          </mxGeometry>
        </mxCell>
        <mxCell id="_4w8fBK6TrAh7xcXZxRu-67" value="HistoryID" style="shape=partialRectangle;connectable=0;fillColor=none;top=0;left=0;bottom=0;right=0;align=left;spacingLeft=6;fontStyle=5;overflow=hidden;whiteSpace=wrap;html=1;" parent="_4w8fBK6TrAh7xcXZxRu-65" vertex="1">
          <mxGeometry x="30" width="170" height="41" as="geometry">
            <mxRectangle width="170" height="41" as="alternateBounds" />
          </mxGeometry>
        </mxCell>
        <mxCell id="_4w8fBK6TrAh7xcXZxRu-68" value="" style="shape=tableRow;horizontal=0;startSize=0;swimlaneHead=0;swimlaneBody=0;fillColor=none;collapsible=0;dropTarget=0;points=[[0,0.5],[1,0.5]];portConstraint=eastwest;top=0;left=0;right=0;bottom=0;" parent="_4w8fBK6TrAh7xcXZxRu-64" vertex="1">
          <mxGeometry y="71" width="200" height="39" as="geometry" />
        </mxCell>
        <mxCell id="_4w8fBK6TrAh7xcXZxRu-69" value="" style="shape=partialRectangle;connectable=0;fillColor=none;top=0;left=0;bottom=0;right=0;editable=1;overflow=hidden;whiteSpace=wrap;html=1;" parent="_4w8fBK6TrAh7xcXZxRu-68" vertex="1">
          <mxGeometry width="30" height="39" as="geometry">
            <mxRectangle width="30" height="39" as="alternateBounds" />
          </mxGeometry>
        </mxCell>
        <mxCell id="_4w8fBK6TrAh7xcXZxRu-70" value="" style="shape=partialRectangle;connectable=0;fillColor=none;top=0;left=0;bottom=0;right=0;align=left;spacingLeft=6;overflow=hidden;whiteSpace=wrap;html=1;" parent="_4w8fBK6TrAh7xcXZxRu-68" vertex="1">
          <mxGeometry x="30" width="170" height="39" as="geometry">
            <mxRectangle width="170" height="39" as="alternateBounds" />
          </mxGeometry>
        </mxCell>
        <mxCell id="_4w8fBK6TrAh7xcXZxRu-71" value="" style="shape=tableRow;horizontal=0;startSize=0;swimlaneHead=0;swimlaneBody=0;fillColor=none;collapsible=0;dropTarget=0;points=[[0,0.5],[1,0.5]];portConstraint=eastwest;top=0;left=0;right=0;bottom=0;" parent="_4w8fBK6TrAh7xcXZxRu-64" vertex="1">
          <mxGeometry y="110" width="200" height="41" as="geometry" />
        </mxCell>
        <mxCell id="_4w8fBK6TrAh7xcXZxRu-72" value="" style="shape=partialRectangle;connectable=0;fillColor=none;top=0;left=0;bottom=0;right=0;editable=1;overflow=hidden;whiteSpace=wrap;html=1;" parent="_4w8fBK6TrAh7xcXZxRu-71" vertex="1">
          <mxGeometry width="30" height="41" as="geometry">
            <mxRectangle width="30" height="41" as="alternateBounds" />
          </mxGeometry>
        </mxCell>
        <mxCell id="_4w8fBK6TrAh7xcXZxRu-73" value="" style="shape=partialRectangle;connectable=0;fillColor=none;top=0;left=0;bottom=0;right=0;align=left;spacingLeft=6;overflow=hidden;whiteSpace=wrap;html=1;" parent="_4w8fBK6TrAh7xcXZxRu-71" vertex="1">
          <mxGeometry x="30" width="170" height="41" as="geometry">
            <mxRectangle width="170" height="41" as="alternateBounds" />
          </mxGeometry>
        </mxCell>
        <mxCell id="_4w8fBK6TrAh7xcXZxRu-74" value="" style="shape=tableRow;horizontal=0;startSize=0;swimlaneHead=0;swimlaneBody=0;fillColor=none;collapsible=0;dropTarget=0;points=[[0,0.5],[1,0.5]];portConstraint=eastwest;top=0;left=0;right=0;bottom=0;" parent="_4w8fBK6TrAh7xcXZxRu-64" vertex="1">
          <mxGeometry y="151" width="200" height="39" as="geometry" />
        </mxCell>
        <mxCell id="_4w8fBK6TrAh7xcXZxRu-75" value="" style="shape=partialRectangle;connectable=0;fillColor=none;top=0;left=0;bottom=0;right=0;editable=1;overflow=hidden;whiteSpace=wrap;html=1;" parent="_4w8fBK6TrAh7xcXZxRu-74" vertex="1">
          <mxGeometry width="30" height="39" as="geometry">
            <mxRectangle width="30" height="39" as="alternateBounds" />
          </mxGeometry>
        </mxCell>
        <mxCell id="_4w8fBK6TrAh7xcXZxRu-76" value="" style="shape=partialRectangle;connectable=0;fillColor=none;top=0;left=0;bottom=0;right=0;align=left;spacingLeft=6;overflow=hidden;whiteSpace=wrap;html=1;" parent="_4w8fBK6TrAh7xcXZxRu-74" vertex="1">
          <mxGeometry x="30" width="170" height="39" as="geometry">
            <mxRectangle width="170" height="39" as="alternateBounds" />
          </mxGeometry>
        </mxCell>
        <mxCell id="_4w8fBK6TrAh7xcXZxRu-77" value="ContainerID" style="shape=partialRectangle;connectable=0;fillColor=none;top=0;left=0;bottom=0;right=0;align=left;spacingLeft=6;overflow=hidden;whiteSpace=wrap;html=1;" parent="1" vertex="1">
          <mxGeometry x="758" y="174" width="170" height="30" as="geometry">
            <mxRectangle width="170" height="30" as="alternateBounds" />
          </mxGeometry>
        </mxCell>
        <mxCell id="_4w8fBK6TrAh7xcXZxRu-78" value="TimePing" style="shape=partialRectangle;connectable=0;fillColor=none;top=0;left=0;bottom=0;right=0;align=left;spacingLeft=6;overflow=hidden;whiteSpace=wrap;html=1;" parent="1" vertex="1">
          <mxGeometry x="758" y="204" width="170" height="30" as="geometry">
            <mxRectangle width="170" height="30" as="alternateBounds" />
          </mxGeometry>
        </mxCell>
        <mxCell id="_4w8fBK6TrAh7xcXZxRu-79" value="DatePinf" style="shape=partialRectangle;connectable=0;fillColor=none;top=0;left=0;bottom=0;right=0;align=left;spacingLeft=6;overflow=hidden;whiteSpace=wrap;html=1;" parent="1" vertex="1">
          <mxGeometry x="758" y="235" width="170" height="30" as="geometry">
            <mxRectangle width="170" height="30" as="alternateBounds" />
          </mxGeometry>
        </mxCell>
        <mxCell id="_4w8fBK6TrAh7xcXZxRu-80" value="StatusPing" style="shape=partialRectangle;connectable=0;fillColor=none;top=0;left=0;bottom=0;right=0;align=left;spacingLeft=6;overflow=hidden;whiteSpace=wrap;html=1;" parent="1" vertex="1">
          <mxGeometry x="758" y="264" width="170" height="30" as="geometry">
            <mxRectangle width="170" height="30" as="alternateBounds" />
          </mxGeometry>
        </mxCell>
        <mxCell id="_4w8fBK6TrAh7xcXZxRu-86" value="" style="endArrow=ERone;html=1;rounded=0;exitX=0;exitY=0.5;exitDx=0;exitDy=0;startArrow=ERmany;startFill=0;endFill=0;entryX=1;entryY=0.5;entryDx=0;entryDy=0;" parent="1" source="_4w8fBK6TrAh7xcXZxRu-68" edge="1" target="_4w8fBK6TrAh7xcXZxRu-19">
          <mxGeometry width="50" height="50" relative="1" as="geometry">
            <mxPoint x="660" y="270" as="sourcePoint" />
            <mxPoint x="682" y="209" as="targetPoint" />
          </mxGeometry>
        </mxCell>
        <mxCell id="59ycZHk8ZUb30ssEKwT5-1" value="User" style="shape=table;startSize=30;container=1;collapsible=1;childLayout=tableLayout;fixedRows=0;rowLines=0;fontStyle=1;align=center;resizeLast=1;html=1;" vertex="1" parent="1">
          <mxGeometry x="214" y="105" width="200" height="124" as="geometry" />
        </mxCell>
        <mxCell id="59ycZHk8ZUb30ssEKwT5-2" value="" style="shape=tableRow;horizontal=0;startSize=0;swimlaneHead=0;swimlaneBody=0;fillColor=none;collapsible=0;dropTarget=0;points=[[0,0.5],[1,0.5]];portConstraint=eastwest;top=0;left=0;right=0;bottom=1;" vertex="1" parent="59ycZHk8ZUb30ssEKwT5-1">
          <mxGeometry y="30" width="200" height="24" as="geometry" />
        </mxCell>
        <mxCell id="59ycZHk8ZUb30ssEKwT5-3" value="PK" style="shape=partialRectangle;connectable=0;fillColor=none;top=0;left=0;bottom=0;right=0;fontStyle=1;overflow=hidden;whiteSpace=wrap;html=1;" vertex="1" parent="59ycZHk8ZUb30ssEKwT5-2">
          <mxGeometry width="30" height="24" as="geometry">
            <mxRectangle width="30" height="24" as="alternateBounds" />
          </mxGeometry>
        </mxCell>
        <mxCell id="59ycZHk8ZUb30ssEKwT5-4" value="ID" style="shape=partialRectangle;connectable=0;fillColor=none;top=0;left=0;bottom=0;right=0;align=left;spacingLeft=6;fontStyle=5;overflow=hidden;whiteSpace=wrap;html=1;" vertex="1" parent="59ycZHk8ZUb30ssEKwT5-2">
          <mxGeometry x="30" width="170" height="24" as="geometry">
            <mxRectangle width="170" height="24" as="alternateBounds" />
          </mxGeometry>
        </mxCell>
        <mxCell id="59ycZHk8ZUb30ssEKwT5-5" value="" style="shape=tableRow;horizontal=0;startSize=0;swimlaneHead=0;swimlaneBody=0;fillColor=none;collapsible=0;dropTarget=0;points=[[0,0.5],[1,0.5]];portConstraint=eastwest;top=0;left=0;right=0;bottom=0;" vertex="1" parent="59ycZHk8ZUb30ssEKwT5-1">
          <mxGeometry y="54" width="200" height="25" as="geometry" />
        </mxCell>
        <mxCell id="59ycZHk8ZUb30ssEKwT5-6" value="" style="shape=partialRectangle;connectable=0;fillColor=none;top=0;left=0;bottom=0;right=0;editable=1;overflow=hidden;whiteSpace=wrap;html=1;" vertex="1" parent="59ycZHk8ZUb30ssEKwT5-5">
          <mxGeometry width="30" height="25" as="geometry">
            <mxRectangle width="30" height="25" as="alternateBounds" />
          </mxGeometry>
        </mxCell>
        <mxCell id="59ycZHk8ZUb30ssEKwT5-7" value="UserID" style="shape=partialRectangle;connectable=0;fillColor=none;top=0;left=0;bottom=0;right=0;align=left;spacingLeft=6;overflow=hidden;whiteSpace=wrap;html=1;" vertex="1" parent="59ycZHk8ZUb30ssEKwT5-5">
          <mxGeometry x="30" width="170" height="25" as="geometry">
            <mxRectangle width="170" height="25" as="alternateBounds" />
          </mxGeometry>
        </mxCell>
        <mxCell id="59ycZHk8ZUb30ssEKwT5-8" value="" style="shape=tableRow;horizontal=0;startSize=0;swimlaneHead=0;swimlaneBody=0;fillColor=none;collapsible=0;dropTarget=0;points=[[0,0.5],[1,0.5]];portConstraint=eastwest;top=0;left=0;right=0;bottom=0;" vertex="1" parent="59ycZHk8ZUb30ssEKwT5-1">
          <mxGeometry y="79" width="200" height="24" as="geometry" />
        </mxCell>
        <mxCell id="59ycZHk8ZUb30ssEKwT5-9" value="" style="shape=partialRectangle;connectable=0;fillColor=none;top=0;left=0;bottom=0;right=0;editable=1;overflow=hidden;whiteSpace=wrap;html=1;" vertex="1" parent="59ycZHk8ZUb30ssEKwT5-8">
          <mxGeometry width="30" height="24" as="geometry">
            <mxRectangle width="30" height="24" as="alternateBounds" />
          </mxGeometry>
        </mxCell>
        <mxCell id="59ycZHk8ZUb30ssEKwT5-10" value="ContainerID" style="shape=partialRectangle;connectable=0;fillColor=none;top=0;left=0;bottom=0;right=0;align=left;spacingLeft=6;overflow=hidden;whiteSpace=wrap;html=1;" vertex="1" parent="59ycZHk8ZUb30ssEKwT5-8">
          <mxGeometry x="30" width="170" height="24" as="geometry">
            <mxRectangle width="170" height="24" as="alternateBounds" />
          </mxGeometry>
        </mxCell>
        <mxCell id="59ycZHk8ZUb30ssEKwT5-11" value="" style="shape=tableRow;horizontal=0;startSize=0;swimlaneHead=0;swimlaneBody=0;fillColor=none;collapsible=0;dropTarget=0;points=[[0,0.5],[1,0.5]];portConstraint=eastwest;top=0;left=0;right=0;bottom=0;" vertex="1" parent="59ycZHk8ZUb30ssEKwT5-1">
          <mxGeometry y="103" width="200" height="21" as="geometry" />
        </mxCell>
        <mxCell id="59ycZHk8ZUb30ssEKwT5-12" value="" style="shape=partialRectangle;connectable=0;fillColor=none;top=0;left=0;bottom=0;right=0;editable=1;overflow=hidden;whiteSpace=wrap;html=1;" vertex="1" parent="59ycZHk8ZUb30ssEKwT5-11">
          <mxGeometry width="30" height="21" as="geometry">
            <mxRectangle width="30" height="21" as="alternateBounds" />
          </mxGeometry>
        </mxCell>
        <mxCell id="59ycZHk8ZUb30ssEKwT5-13" value="" style="shape=partialRectangle;connectable=0;fillColor=none;top=0;left=0;bottom=0;right=0;align=left;spacingLeft=6;overflow=hidden;whiteSpace=wrap;html=1;" vertex="1" parent="59ycZHk8ZUb30ssEKwT5-11">
          <mxGeometry x="30" width="170" height="21" as="geometry">
            <mxRectangle width="170" height="21" as="alternateBounds" />
          </mxGeometry>
        </mxCell>
        <mxCell id="59ycZHk8ZUb30ssEKwT5-17" style="edgeStyle=orthogonalEdgeStyle;rounded=0;orthogonalLoop=1;jettySize=auto;html=1;exitX=1;exitY=0.5;exitDx=0;exitDy=0;entryX=0;entryY=0.5;entryDx=0;entryDy=0;" edge="1" parent="1" source="59ycZHk8ZUb30ssEKwT5-5" target="_4w8fBK6TrAh7xcXZxRu-19">
          <mxGeometry relative="1" as="geometry" />
        </mxCell>
        <mxCell id="59ycZHk8ZUb30ssEKwT5-18" style="edgeStyle=orthogonalEdgeStyle;rounded=0;orthogonalLoop=1;jettySize=auto;html=1;exitX=1;exitY=0.5;exitDx=0;exitDy=0;entryX=0;entryY=0.5;entryDx=0;entryDy=0;" edge="1" parent="1" source="_4w8fBK6TrAh7xcXZxRu-6" target="59ycZHk8ZUb30ssEKwT5-5">
          <mxGeometry relative="1" as="geometry" />
        </mxCell>
      </root>
    </mxGraphModel>
  </diagram>
</mxfile>
